<svg xmlns="http://www.w3.org/2000/svg" aria-labelledby="title" role="img" viewBox="0 0 460 330"><title id="title">Flores decorativas para login</title><rect width="400" height="240" x="30" y="44" fill="#fffaf5" stroke="#eaded7" stroke-width="4" rx="32"/><path fill="none" stroke="#536b4f" stroke-linecap="round" stroke-width="8" d="M218 248c-35-58-52-112-56-178m56 178c14-62 39-112 74-164m-74 164c-3-63 7-113 28-168"/><path fill="#dce8d5" stroke="#9caf96" stroke-width="4" d="M188 184c-48-14-79-44-91-88 44 4 75 35 91 88Zm62-6c53-24 87-58 101-104-49 10-81 43-101 104Z"/><g fill="#e9b7bf" stroke="#8f6f8f" stroke-width="3"><circle cx="164" cy="82" r="20" fill="#c78f57" stroke="none"/><ellipse cx="164" cy="48" rx="20" ry="36"/><ellipse cx="136" cy="76" rx="19" ry="34" transform="rotate(-55 136 76)"/><ellipse cx="192" cy="76" rx="19" ry="34" transform="rotate(55 192 76)"/><ellipse cx="146" cy="114" rx="18" ry="32" transform="rotate(-140 146 114)"/><ellipse cx="182" cy="114" rx="18" ry="32" transform="rotate(140 182 114)"/></g><g fill="#d8bfd9" stroke="#8f6f8f" stroke-width="3"><circle cx="280" cy="94" r="19" fill="#c78f57" stroke="none"/><ellipse cx="280" cy="62" rx="19" ry="34"/><ellipse cx="253" cy="89" rx="18" ry="32" transform="rotate(-55 253 89)"/><ellipse cx="307" cy="89" rx="18" ry="32" transform="rotate(55 307 89)"/><ellipse cx="263" cy="125" rx="17" ry="30" transform="rotate(-140 263 125)"/><ellipse cx="297" cy="125" rx="17" ry="30" transform="rotate(140 297 125)"/></g><path fill="#f3d7c1" stroke="#c78f57" stroke-width="4" d="M166 224h108l-20 48h-68z"/></svg>
